<svg xmlns="http://www.w3.org/2000/svg">
  <symbol id="play" viewBox="0 0 24 24">
    <path d="m6 3 14 9-14 9z" fill="currentColor" stroke="none"/>
  </symbol>
  <symbol id="pause" viewBox="0 0 24 24">
    <rect x="6" y="4" width="4" height="16" rx="1" fill="currentColor"/>
    <rect x="14" y="4" width="4" height="16" rx="1" fill="currentColor"/>
  </symbol>
  <symbol id="step-forward" viewBox="0 0 24 24">
    <path d="m5 4 11 8-11 8z" fill="currentColor"/>
    <path d="M19 5v14" fill="none" stroke="currentColor" stroke-width="2" stroke-linecap="round"/>
  </symbol>
  <symbol id="rotate-ccw" viewBox="0 0 24 24">
    <path d="M3 12a9 9 0 1 0 3-6.7L3 8" fill="none" stroke="currentColor" stroke-width="2" stroke-linecap="round" stroke-linejoin="round"/>
    <path d="M3 3v5h5" fill="none" stroke="currentColor" stroke-width="2" stroke-linecap="round" stroke-linejoin="round"/>
  </symbol>
  <symbol id="x" viewBox="0 0 24 24">
    <path d="M6 6l12 12M18 6 6 18" fill="none" stroke="currentColor" stroke-width="2" stroke-linecap="round"/>
  </symbol>
  <symbol id="copy" viewBox="0 0 24 24">
    <rect x="8" y="8" width="13" height="13" rx="2" fill="none" stroke="currentColor" stroke-width="2"/>
    <path d="M16 8V5a2 2 0 0 0-2-2H5a2 2 0 0 0-2 2v9a2 2 0 0 0 2 2h3" fill="none" stroke="currentColor" stroke-width="2" stroke-linecap="round"/>
  </symbol>
  <symbol id="download" viewBox="0 0 24 24">
    <path d="M12 3v12m0 0 5-5m-5 5-5-5M5 21h14a2 2 0 0 0 2-2v-3M3 16v3a2 2 0 0 0 2 2" fill="none" stroke="currentColor" stroke-width="2" stroke-linecap="round" stroke-linejoin="round"/>
  </symbol>
</svg>
